<?xml version="1.0" encoding="UTF-8"?>
<svg width="100pt" height="100pt" version="1.1" viewBox="0 0 100 100" xmlns="http://www.w3.org/2000/svg">
 <path d="m11.719 46.855c9.6992 8.8516 9.7305 7.5703 12.555-7.1406-1.2852 0.046875-2.582-0.42578-3.5703-1.4883-2.875-3.0977-0.90234-8.2422 3.5156-8.2422 4.0117 0 6.3281 4.668 3.8281 7.793-0.32031 0.40234-0.69141 0.74219-1.0938 1.0273 10.734 14.93 12.523 11.68 20.719-6.6562-0.79688-0.32031-1.5391-0.82031-2.1836-1.5156-3.7812-4.0781-1.0391-10.754 4.5117-10.754s8.2969 6.6797 4.5117 10.754c-0.64453 0.69141-1.3906 1.1953-2.1836 1.5156 8.1914 18.336 9.9844 21.59 20.719 6.6562-0.40234-0.28125-0.76953-0.625-1.0938-1.0273-2.4961-3.125-0.17969-7.793 3.8281-7.793 4.4219 0 6.3945 5.1406 3.5156 8.2422-0.98828 1.0664-2.2812 1.5352-3.5703 1.4883 2.8242 14.711 2.8555 15.988 12.555 7.1406-0.16016-0.15625-0.3125-0.32031-0.45703-0.5-2.4961-3.1289-0.17969-7.793 3.8281-7.793 4.4219 0 6.3945 5.1406 3.5156 8.2383-1.0234 1.1055-2.3828 1.5703-3.7148 1.4805l-4.1836 21.324h-74.559l-4.1836-21.324c-1.332 0.089844-2.6875-0.37891-3.7148-1.4805-2.875-3.0977-0.90234-8.2383 3.5156-8.2383 4.0117 0 6.3281 4.668 3.8281 7.793-0.14453 0.17969-0.29297 0.34766-0.45703 0.5zm-0.28906 23.867h77.148v9.3945h-77.148z" fill-rule="evenodd"/>
</svg>
