<?xml version="1.0" encoding="UTF-8"?>
<svg width="100pt" height="100pt" version="1.1" viewBox="0 0 100 100" xmlns="http://www.w3.org/2000/svg">
 <path d="m52.371 100c7.4062-19.258 5.7773-44.445-0.59375-72.891-1.332 2.3711-2.0742 5.0352-2.5195 7.8516-0.59375-1.1836-1.4805-2.2227-2.668-2.668l2.668 6.0742-3.8516-3.8516c0.74219 2.5195 1.9258 4.4453 3.2578 6.0742-1.6289-0.44531-3.2578-1.4805-4.8906-3.2578 2.2227 2.0742 3.1094 4.5938 3.2578 7.1094l-3.2578-3.7031c3.2578 4.5938 0 7.4062 0.59375 9.7773-3.5547-4.4453-5.6289-10.074-3.1094-19.406-1.7773 1.4805-3.5547 2.5195-5.1836 3.2578 0.29688-1.4805 0.44531-2.668-0.14844-3.7031-0.29688 2.668-1.1836 4.7422-2.2227 6.0742v-5.6289c-0.89062 2.0742-1.332 4.4453-1.1836 6.8164-1.0352-1.332-1.7773-2.8164-2.0742-5.0352-0.29687 4.4453-1.1836 6.2227-2.2227 7.1094l0.59375-4.8906c-1.9258 4.1484-4.1484 6.5195-6.668 7.5547 2.2227-9.9258 6.668-18.965 20.297-24.594-2.5195-0.14844-4.7422-0.44531-7.1094-1.332l2.2227-3.2578-5.6289 3.2578 3.2578-4.4453c-1.9258 1.7773-3.7031 2.8164-5.332 3.4062 0.44531-1.7773 1.4805-3.1094 2.668-4.4453-2.2227 1.9258-4.4453 3.1094-7.1094 3.1094l3.8516-3.2578c-4.5938 2.9648-6.8164 0.14844-9.4805 0.59375 12.742-10.965 22.52-2.668 30.816 5.332 3.8516-14.52 9.6289-16.297 18.074-17.035l-2.8164 3.5547-3.8516 0.89062h2.8164c-0.44531 0.89062-2.0742 1.4805-4.4453 1.6289 1.9258 0.14844 2.668 0.44531 2.8164 1.1836-1.6289-0.14844-3.1094 0.29688-4.4453 1.0352h3.1094c-1.0352 1.0352-2.5195 1.4805-4 1.6289h2.668c-1.4805 2.3711-3.4062 4.4453-5.4805 6.2227 8.5938-6.0742 17.332-6.5195 25.184 1.1836-2.9648 0-4.8906 1.332-8.1484-1.7773 0.74219 0.74219 1.332 1.6289 1.7773 2.8164-1.6289-0.14844-3.1094-1.1836-4.5938-2.668l1.1836 2.668c-1.332 0-2.5195-0.74219-4-2.2227l1.6289 2.8164c-1.332-0.14844-2.668-0.89062-3.8516-2.2227l1.1836 2.668c-2.0742-0.14844-4.2969 0-6.8164 0.44531 13.184 5.332 16 13.48 19.109 22.965-1.9258-1.332-5.332-1.7773-5.9258-7.1094l-0.29688 4.4453c-1.0352-0.89063-1.7773-2.5195-1.9258-6.668-0.29688 1.9258-0.89063 3.5547-1.6289 4.8906l-1.332-6.0742-0.29688 4.8906-1.9258-5.332-0.29688 3.1094c-3.8516-1.9258-7.4062-4.5938-10.816-7.5547 12.148 23.852 13.035 46.668 8.4453 72.445l-9.332 0.14844z" fill-rule="evenodd"/>
</svg>
